# xmcd
#
# Track frame offsets:
#	150
#	19465
#	38933
#	49970
#	72678
#	85318
#	101323
#	111360
#	126855
#	144165
#	156830
#	169393
#	188385
#	199643
#
# Disc length: 2748 seconds
#
# Revision: 0
# Processed by: cddbd v1.5.2PL0 Copyright (c) Steve Scherf et al.
# Submitted via: EZCDAudioConverter 1.3.3.1
#
DISCID=c50aba0e
DTITLE=Buoys - Give Up Your Guns
DYEAR=1992
DGENRE=Pop
TTITLE0=Give Up You Guns
TTITLE1=The Prince Of Thieves
TTITLE2=Castles
TTITLE3=Sunny Days,   Memories
TTITLE4=Timothy
TTITLE5=Tell Me Heaven Is Here
TTITLE6=Blood Knot
TTITLE7=Tomorrow
TTITLE8=Absent Friend
TTITLE9=Streams Together
TTITLE10=These Days
TTITLE11=Pittsburgh Steel
TTITLE12=Good Loving
TTITLE13=sunny days
EXTD=
EXTT0=
EXTT1=
EXTT2=
EXTT3=
EXTT4=
EXTT5=
EXTT6=
EXTT7=
EXTT8=
EXTT9=
EXTT10=
EXTT11=
EXTT12=
EXTT13=
PLAYORDER=
